<svg width="24" height="24" viewBox="0 0 24 24" fill="none" xmlns="http://www.w3.org/2000/svg">
<path fill-rule="evenodd" clip-rule="evenodd" d="M2 12C2 17.5228 6.47715 22 12 22C17.5228 22 22 17.5228 22 12C22 6.47715 17.5228 2 12 2C6.47715 2 2 6.47715 2 12ZM12 5.75L12.6107 9.47156C12.7793 10.499 13.5671 11.3144 14.5881 11.5183L17 12L14.5881 12.4817C13.5671 12.6856 12.7793 13.501 12.6107 14.5284L12 18.25L11.3893 14.5284C11.2207 13.501 10.4329 12.6856 9.4119 12.4817L7 12L9.4119 11.5183C10.4329 11.3144 11.2207 10.499 11.3893 9.47156L12 5.75ZM15.4588 7.96761L15.3 7L15.1412 7.96761C15.0974 8.23475 14.8926 8.44675 14.6271 8.49976L14 8.625L14.6271 8.75024C14.8926 8.80325 15.0974 9.01525 15.1412 9.28239L15.3 10.25L15.4588 9.28239C15.5026 9.01525 15.7074 8.80325 15.9729 8.75024L16.6 8.625L15.9729 8.49976C15.7074 8.44675 15.5026 8.23475 15.4588 7.96761Z" fill="white"/>
</svg>
